<svg xmlns="http://www.w3.org/2000/svg" viewBox="0 0 928.99 264.54"><defs><style>.cls-1{fill:#fff;}.cls-2{fill:#009ade;}</style></defs><g id="Layer_2" data-name="Layer 2"><g id="Layer_1-2" data-name="Layer 1"><path class="cls-1" d="M13.15,5.59H196.32V34.34L85.73,203l-7.3,8.28,10.71-1.46H197.29v47.86H0V228.9L111.55,59.38l7.31-8.29-10.23,1.47H13.15Z"/><path class="cls-1" d="M394.24,257.64a30.67,30.67,0,0,1-10.93-10.45,85,85,0,0,1-7-13.85l-1.46-9.72-5.67,8.25q-21.92,19.89-38.47,25.95a101.17,101.17,0,0,1-35.05,6.06q-17.53,0-31.41-6.06a74.92,74.92,0,0,1-23.86-16.25,68.55,68.55,0,0,1-15.1-23.3,75.63,75.63,0,0,1-5.11-27.73,70.9,70.9,0,0,1,6.32-29.23q6.31-14.13,21.63-25.57t41.1-19.49q25.8-8,64.28-11-2.45,17.05-10,29.71t-23.14,15.6q-18.51,2.93-26.79,12.17a31.2,31.2,0,0,0-8.28,21.44,28,28,0,0,0,9,21.19,30.39,30.39,0,0,0,21.67,8.52q14.1,0,28.22-9.53a129.31,129.31,0,0,0,26.76-24.68V105.92q0-25.41-13.88-40.56T317.34,50.2a151.75,151.75,0,0,0-26.07,2.44,178.43,178.43,0,0,0-30.93,8.76L243.78,18.68A205.41,205.41,0,0,1,288.59,4.61Q311.5.25,328.54.24q52.09,0,80,27.06T436.5,106v90.19a264.84,264.84,0,0,0,1.7,29,235.73,235.73,0,0,0,6.09,32.42Z"/><path class="cls-1" d="M692.74,257.64,607.5,127.47Q587,96.75,567.31,66.53T529.07,5.59h-76L541.24,130.4l-83.3,127.24H532L574.2,180.1,622,257.64Z"/><path class="cls-1" d="M865.68,103.94a59.43,59.43,0,0,0-1-21.49,51,51,0,0,0-8-18.07,41.65,41.65,0,0,0-14.12-12.45,40.58,40.58,0,0,0-19.74-4.64,49.78,49.78,0,0,0-20.21,4.39,52.05,52.05,0,0,0-18.27,13.9Q776,75.09,770.92,90t-5.11,35.84q0,42.44,19,65.6t49.69,23.16a135.22,135.22,0,0,0,33.37-4.14q16.3-4.14,37.75-13.88l17,45.19q-26.31,12.62-49.45,17.71a213.89,213.89,0,0,1-46,5.09q-33.62,0-57.74-12.18a122.64,122.64,0,0,1-40-31.42A127,127,0,0,1,706,177.33a164.83,164.83,0,0,1-7.57-49.2q0-30.19,10-54.08a116,116,0,0,1,27.33-40.19A120.2,120.2,0,0,1,776.51,8.77,140.62,140.62,0,0,1,826.22,0Q853,0,875.42,10.75a92.78,92.78,0,0,1,36.05,29.79q13.63,19.05,16.8,45.67t-7.55,57.88H784.32q5.35-17.13,15.34-28.64t22.66-11.51Z"/><path class="cls-2" d="M623.57,5.59h73.56l-75,107.25a125,125,0,0,1-10-14.13,82.52,82.52,0,0,1-8.28-18.28,68.32,68.32,0,0,1-3.17-20.73,48.4,48.4,0,0,1,4.87-21Z"/></g></g></svg>